<svg width="28" height="25" fill="none" xmlns="http://www.w3.org/2000/svg"><path fill-rule="evenodd" clip-rule="evenodd" d="m7.727 9.318-.942 1.834a.547.547 0 0 1-.4.29l-2.034.329-.06-.37 2.035-.33a.172.172 0 0 0 .125-.091l.942-1.833.334.171ZM2.87 12.01l-.06-.37-2.035.33a.923.923 0 0 0-.507 1.56l1.453 1.462.266-.264-1.453-1.463a.547.547 0 0 1 .301-.925l2.035-.33Zm.174 3.781-.267.265 1.453 1.462a.172.172 0 0 1 .048.148l-.316 2.037.371.057.316-2.037a.547.547 0 0 0-.153-.47l-1.452-1.462Zm1.06 5.45-.372-.057-.315 2.037a.923.923 0 0 0 1.328.965l1.84-.93-.17-.335-1.84.93a.547.547 0 0 1-.787-.572l.315-2.037Zm3.65 1.004.168.335 1.84-.93a.172.172 0 0 1 .155 0l1.84.93.169-.335-1.84-.93a.547.547 0 0 0-.493 0l-1.84.93Zm5.51.676-.17.335 1.84.93a.923.923 0 0 0 1.328-.965l-.315-2.037-.371.058.315 2.037a.547.547 0 0 1-.787.572l-1.84-.93Zm2.082-3.161.371-.058-.316-2.036a.172.172 0 0 1 .048-.148l1.453-1.462-.267-.265-1.452 1.463a.547.547 0 0 0-.153.47l.316 2.036Zm2.346-5.032.266.264 1.453-1.462a.923.923 0 0 0-.507-1.56l-2.035-.33-.06.37 2.035.33c.44.07.614.61.3.925l-1.452 1.463ZM15.33 11.77l.06-.37-2.035-.33a.172.172 0 0 1-.125-.091l-.942-1.833-.334.171.942 1.834a.55.55 0 0 0 .4.29l2.034.329Zm-4.06-3.785.334-.172-.942-1.833a.923.923 0 0 0-1.641 0l-.942 1.833.334.172.942-1.834a.547.547 0 0 1 .973 0l.942 1.834Z" fill="#6161FF"/><path d="m22.773 1-1.328 2.953m4.356-1.183-3.027 1.92" stroke="#6161FF" stroke-width=".375"/><path d="M15.978 3.876a.712.712 0 0 1 1.25-.213l3.552 4.743c.136.18.35.287.576.285l5.925-.047a.713.713 0 0 1 .588 1.123l-3.413 4.844a.713.713 0 0 0-.093.635l1.876 5.62a.713.713 0 0 1-.886.907l-5.662-1.748a.712.712 0 0 0-.633.107l-4.766 3.521a.713.713 0 0 1-1.136-.563l-.086-5.924a.712.712 0 0 0-.299-.57l-4.82-3.444a.712.712 0 0 1 .184-1.254l5.607-1.913a.713.713 0 0 0 .45-.46l1.786-5.65Z" fill="#FC0"/></svg>